<svg width="153" height="46" viewBox="0 0 153 46" fill="none" xmlns="http://www.w3.org/2000/svg">
<path d="M84.6 32H81.04L77.64 12.72V38H74.52V10H79.4L82.8 29.4L86.24 10H91.12V38H88V12.72L84.6 32ZM98.5606 38.6C96.5606 38.6 95.094 37.9333 94.1606 36.6C93.254 35.24 92.8006 33.1067 92.8006 30.2V24.2C92.8006 21.2933 93.254 19.1733 94.1606 17.84C95.094 16.48 96.5606 15.8 98.5606 15.8C100.481 15.8 101.867 16.4667 102.721 17.8C103.601 19.1067 104.041 21.24 104.041 24.2V28.48H95.8406V30.76C95.8406 34.3333 96.694 36.12 98.4006 36.12C99.254 36.12 99.894 35.8 100.321 35.16C100.774 34.52 101.094 33.4533 101.281 31.96L103.961 32.4C103.774 34.56 103.254 36.1333 102.401 37.12C101.547 38.1067 100.267 38.6 98.5606 38.6ZM95.8406 25.92H100.961V23.64C100.961 20.0667 100.121 18.28 98.4406 18.28C96.7073 18.28 95.8406 20.0667 95.8406 23.64V25.92ZM103.717 12.56V10H114.637V12.56H110.757V38H107.597V12.56H103.717ZM118.132 38.6C116.558 38.6 115.425 38.0933 114.732 37.08C114.038 36.0667 113.692 34.3867 113.692 32.04V16.4H116.732V32.28C116.732 33.6133 116.892 34.5867 117.212 35.2C117.532 35.7867 118.065 36.08 118.812 36.08C120.598 36.08 121.492 34.7867 121.492 32.2V16.4H124.532V38H122.652L122.012 35.36C121.718 36.3733 121.225 37.1733 120.532 37.76C119.865 38.32 119.065 38.6 118.132 38.6ZM133.557 38.6C131.45 38.6 130.117 37.12 129.557 34.16L128.677 38H126.797V8.4H129.717V19C130.463 16.8667 131.743 15.8 133.557 15.8C135.077 15.8 136.183 16.4667 136.877 17.8C137.57 19.1333 137.917 21.2667 137.917 24.2V30.2C137.917 33.1067 137.57 35.24 136.877 36.6C136.183 37.9333 135.077 38.6 133.557 38.6ZM132.677 36.12C133.477 36.12 134.063 35.72 134.437 34.92C134.81 34.12 134.997 32.8667 134.997 31.16V23.24C134.997 19.9333 134.29 18.28 132.877 18.28C131.81 18.28 131.01 18.96 130.477 20.32C129.97 21.68 129.717 23.7867 129.717 26.64V27.2C129.717 30.2133 129.957 32.4533 130.437 33.92C130.943 35.3867 131.69 36.12 132.677 36.12ZM144.783 38.6C142.783 38.6 141.316 37.9333 140.383 36.6C139.476 35.24 139.023 33.1067 139.023 30.2V24.2C139.023 21.2933 139.476 19.1733 140.383 17.84C141.316 16.48 142.783 15.8 144.783 15.8C146.703 15.8 148.089 16.4667 148.943 17.8C149.823 19.1067 150.263 21.24 150.263 24.2V28.48H142.062V30.76C142.062 34.3333 142.916 36.12 144.623 36.12C145.476 36.12 146.116 35.8 146.543 35.16C146.996 34.52 147.316 33.4533 147.503 31.96L150.183 32.4C149.996 34.56 149.476 36.1333 148.623 37.12C147.769 38.1067 146.489 38.6 144.783 38.6ZM142.062 25.92H147.183V23.64C147.183 20.0667 146.343 18.28 144.663 18.28C142.929 18.28 142.062 20.0667 142.062 23.64V25.92Z" fill="black"/>
<rect width="63.1863" height="36.801" rx="18.4005" transform="matrix(0.999991 0.00416309 -0.00411629 0.999992 0.151367 5)" fill="#850404"/>
<path d="M22.9698 24.6493L35.7032 32.1278C36.7378 32.7351 38.3223 32.1458 38.3223 30.6436V15.6902C38.3223 14.3426 36.85 13.5304 35.7032 14.206L22.9698 21.6809C21.8339 22.3457 21.8303 23.9845 22.9698 24.6493Z" fill="white"/>
</svg>
